<svg width="163" height="36" fill="none" xmlns="http://www.w3.org/2000/svg"><g clip-path="url(#a)"><path fill-rule="evenodd" clip-rule="evenodd" d="M26.287 18c0 7.088-5.426 12.833-12.12 12.833-6.694 0-12.12-5.745-12.12-12.833S7.472 5.167 14.166 5.167c6.694 0 12.12 5.745 12.12 12.833Zm2.046 0c0 8.284-6.342 15-14.166 15C6.343 33 0 26.284 0 18 0 9.716 6.343 3 14.167 3s14.166 6.716 14.166 15Zm-6.35-6.724c0 .857-.656 1.552-1.466 1.552-.81 0-1.465-.695-1.465-1.552 0-.857.656-1.552 1.465-1.552.81 0 1.466.695 1.466 1.552ZM9.905 19.209c.63 2.492 3.05 3.97 5.403 3.303 2.354-.668 3.75-3.23 3.12-5.721-.63-2.492-3.05-3.97-5.403-3.303-2.354.668-3.75 3.23-3.12 5.721Zm-1.976.56c.923 3.649 4.464 5.813 7.909 4.836 3.445-.978 5.49-4.727 4.566-8.375-.923-3.648-4.464-5.812-7.909-4.835-3.445.978-5.49 4.727-4.566 8.375Z" fill="url(#b)"/><path d="M36.985 29V7.182h9.012c1.634 0 3.044.32 4.23.959 1.193.632 2.113 1.516 2.76 2.652.645 1.13.968 2.444.968 3.942 0 1.506-.33 2.823-.99 3.953-.654 1.122-1.588 1.992-2.802 2.61-1.215.618-2.656.926-4.325.926h-5.561V18.07h4.58c.796 0 1.46-.139 1.993-.416.54-.277.948-.664 1.225-1.161.277-.504.415-1.09.415-1.758 0-.675-.138-1.257-.415-1.747a2.789 2.789 0 0 0-1.225-1.15c-.54-.27-1.204-.405-1.992-.405h-2.6V29h-5.273Zm19.57 0V12.636h5.21V29h-5.21Zm2.61-18.27a2.69 2.69 0 0 1-1.886-.725c-.525-.49-.788-1.08-.788-1.768 0-.682.263-1.265.788-1.748a2.669 2.669 0 0 1 1.886-.735c.739 0 1.367.245 1.886.735.525.483.788 1.066.788 1.748 0 .688-.263 1.278-.788 1.768-.519.483-1.147.724-1.886.724ZM72.72 29.308c-1.726 0-3.207-.355-4.443-1.065a7.206 7.206 0 0 1-2.833-2.962c-.66-1.271-.991-2.741-.991-4.41 0-1.677.33-3.147.99-4.411a7.26 7.26 0 0 1 2.845-2.972c1.236-.71 2.71-1.066 4.421-1.066 1.513 0 2.83.274 3.953.82 1.129.547 2.01 1.322 2.642 2.323.639.994.976 2.163 1.012 3.505h-4.869c-.1-.838-.383-1.495-.852-1.97-.462-.477-1.066-.715-1.811-.715-.604 0-1.133.17-1.588.512-.454.334-.81.83-1.065 1.491-.248.654-.373 1.463-.373 2.43 0 .965.124 1.782.373 2.45.256.66.61 1.16 1.065 1.502.455.333.984.5 1.588.5.483 0 .909-.103 1.278-.309.377-.206.685-.508.927-.905.242-.405.394-.895.458-1.47h4.869c-.05 1.35-.387 2.528-1.012 3.537-.618 1.008-1.488 1.793-2.61 2.354-1.115.554-2.44.83-3.974.83Zm17.89 6.168c-1.556 0-2.887-.216-3.995-.65-1.108-.433-1.978-1.026-2.61-1.779a4.925 4.925 0 0 1-1.14-2.557l4.932-.276c.092.333.263.625.511.873.256.249.586.44.991.575.412.135.895.203 1.45.203.873 0 1.593-.213 2.162-.64.575-.418.863-1.154.863-2.205v-2.876h-.181a3.873 3.873 0 0 1-.938 1.353c-.419.398-.941.71-1.566.937-.618.228-1.328.341-2.13.341-1.194 0-2.288-.277-3.282-.83-.987-.562-1.78-1.428-2.376-2.6-.59-1.18-.884-2.695-.884-4.55 0-1.91.306-3.483.916-4.719.611-1.243 1.41-2.162 2.397-2.759a6.125 6.125 0 0 1 3.207-.895c.86 0 1.594.15 2.205.448A4.519 4.519 0 0 1 92.665 14c.397.462.7.941.905 1.438h.15v-2.802h5.188v16.428c0 1.385-.348 2.553-1.044 3.505-.697.952-1.67 1.672-2.92 2.162-1.25.498-2.695.746-4.335.746Zm.16-10.493c.631 0 1.171-.167 1.619-.501.447-.334.792-.813 1.033-1.438.242-.625.362-1.375.362-2.248 0-.888-.12-1.651-.362-2.29-.234-.647-.579-1.144-1.033-1.492-.448-.348-.988-.522-1.62-.522-.646 0-1.193.178-1.64.533-.448.355-.789.855-1.023 1.502-.227.639-.34 1.395-.34 2.269 0 .873.116 1.623.35 2.248.235.625.572 1.104 1.013 1.438.447.334.994.5 1.64.5ZM102.228 29V12.636h5.06v2.983h.171c.298-1.08.784-1.882 1.459-2.407.675-.533 1.46-.8 2.355-.8.241 0 .49.018.745.054.256.028.494.075.714.138v4.528a4.986 4.986 0 0 0-.98-.202 8.694 8.694 0 0 0-1.065-.075c-.618 0-1.176.139-1.673.416-.49.27-.877.65-1.161 1.14-.277.482-.416 1.05-.416 1.704V29h-5.209Zm16.624.277c-1.044 0-1.97-.174-2.78-.522a4.33 4.33 0 0 1-1.907-1.598c-.462-.717-.693-1.616-.693-2.695 0-.91.16-1.677.48-2.302a4.092 4.092 0 0 1 1.321-1.523 6.21 6.21 0 0 1 1.939-.884 12.59 12.59 0 0 1 2.344-.416c.93-.085 1.679-.174 2.247-.266.569-.1.981-.238 1.236-.416a.895.895 0 0 0 .394-.777v-.053c0-.547-.188-.97-.564-1.268-.377-.298-.884-.448-1.524-.448-.689 0-1.243.15-1.662.448-.419.298-.685.71-.799 1.236l-4.804-.17a5.686 5.686 0 0 1 1.097-2.664c.597-.788 1.413-1.406 2.45-1.854 1.044-.454 2.298-.682 3.761-.682 1.044 0 2.006.125 2.887.373.881.242 1.648.597 2.301 1.066a4.81 4.81 0 0 1 1.513 1.704c.362.675.543 1.445.543 2.312V29h-4.9v-2.28h-.128a4.635 4.635 0 0 1-1.119 1.406 4.45 4.45 0 0 1-1.587.863c-.604.192-1.286.288-2.046.288Zm1.609-3.41c.561 0 1.065-.113 1.513-.34.454-.227.817-.54 1.087-.938.269-.404.404-.873.404-1.406v-1.555c-.149.078-.33.149-.543.213a9.26 9.26 0 0 1-.682.181c-.248.057-.504.107-.767.15-.263.042-.515.08-.756.116-.49.078-.909.2-1.257.363a1.988 1.988 0 0 0-.789.639 1.57 1.57 0 0 0-.266.916c0 .54.192.952.575 1.236.391.284.885.426 1.481.426ZM131.819 29V12.636h4.953v3.005h.182c.34-.995.916-1.78 1.725-2.355.81-.575 1.776-.863 2.898-.863 1.137 0 2.11.291 2.919.874a3.825 3.825 0 0 1 1.545 2.344h.17c.306-.973.902-1.751 1.79-2.334.888-.589 1.936-.884 3.143-.884 1.548 0 2.805.498 3.771 1.492.966.987 1.449 2.344 1.449 4.07V29h-5.209v-9.822c0-.817-.21-1.439-.629-1.865-.419-.433-.962-.65-1.63-.65-.717 0-1.282.235-1.694.703-.405.462-.607 1.084-.607 1.865V29h-5.007v-9.876c0-.76-.206-1.36-.618-1.8-.412-.44-.955-.66-1.63-.66-.455 0-.856.11-1.204.33a2.195 2.195 0 0 0-.82.916c-.192.398-.288.866-.288 1.406V29h-5.209Z" fill="#6357FF"/></g><defs><linearGradient id="b" x1="14.167" y1="3" x2="14.167" y2="33" gradientUnits="userSpaceOnUse"><stop stop-color="#877EFF"/><stop offset=".461" stop-color="#685DFF"/><stop offset="1" stop-color="#3121FF"/></linearGradient><clipPath id="a"><path fill="#fff" d="M0 0h162.333v36H0z"/></clipPath></defs></svg>